<?xml version="1.0" encoding="UTF-8" standalone="no"?>
<!DOCTYPE svg PUBLIC "-//W3C//DTD SVG 1.0//EN" "http://www.w3.org/TR/2001/PR-SVG-20010719/DTD/svg10.dtd">
<svg width="11cm" height="27cm" viewBox="358 -22 219 524" xmlns="http://www.w3.org/2000/svg" xmlns:xlink="http://www.w3.org/1999/xlink">
  <g id="Fondo">
    <g>
      <rect style="fill: #ffffff; fill-opacity: 1; stroke-opacity: 1; stroke-width: 2; stroke: #000000" x="421.2" y="46" width="77.6" height="38" rx="0" ry="0"/>
      <text font-size="12.7998" style="fill: #000000; fill-opacity: 1; stroke: none;text-anchor:middle;font-family:sans-serif;font-style:normal;font-weight:normal" x="460" y="70.683">
        <tspan x="460" y="70.683">count = 1</tspan>
      </text>
    </g>
    <g>
      <polygon style="fill: #ffffff; fill-opacity: 1; stroke-opacity: 1; stroke-width: 2; stroke: #000000" fill-rule="evenodd" points="460.16,340.004 543.715,378.944 460.16,417.884 376.604,378.944 "/>
      <text font-size="12.7998" style="fill: #000000; fill-opacity: 1; stroke: none;text-anchor:middle;font-family:sans-serif;font-style:normal;font-weight:normal" x="460.16" y="384.627">
        <tspan x="460.16" y="384.627">while (i &lt;= 10)</tspan>
      </text>
    </g>
    <g>
      <path style="fill: #ffffff; fill-opacity: 1; stroke-opacity: 1; stroke-width: 2; stroke: #000000" fill-rule="evenodd" d="M 442.625 -20 L 481.375,-20 C 486.725,-20 491.062,-11.0457 491.062,0 C 491.062,11.0457 486.725,20 481.375,20 L 442.625,20 C 437.275,20 432.938,11.0457 432.938,0 C 432.938,-11.0457 437.275,-20 442.625,-20z"/>
      <text font-size="12.7998" style="fill: #000000; fill-opacity: 1; stroke: none;text-anchor:middle;font-family:sans-serif;font-style:normal;font-weight:normal" x="462" y="5.68262">
        <tspan x="462" y="5.68262">Inicio</tspan>
      </text>
    </g>
    <text font-size="12.7998" style="fill: #000000; fill-opacity: 1; stroke: none;text-anchor:start;font-family:sans-serif;font-style:normal;font-weight:normal" x="486" y="437">
      <tspan x="486" y="437">NO</tspan>
    </text>
    <text font-size="12.7998" style="fill: #000000; fill-opacity: 1; stroke: none;text-anchor:start;font-family:sans-serif;font-style:normal;font-weight:normal" x="551" y="357">
      <tspan x="551" y="357">SI</tspan>
    </text>
    <g>
      <path style="fill: #ffffff; fill-opacity: 1; stroke-opacity: 1; stroke-width: 2; stroke: #000000" fill-rule="evenodd" d="M 383.05 175 L 492.95,175 C 509.435,183 514.93,187 514.93,195 C 514.93,203 509.435,207 492.95,215 L 383.05,215 L 361.07,195 L 383.05,175z"/>
      <text font-size="12.7998" style="fill: #000000; fill-opacity: 1; stroke: none;text-anchor:middle;font-family:sans-serif;font-style:normal;font-weight:normal" x="438" y="200.683">
        <tspan x="438" y="200.683">"Count is: " count</tspan>
      </text>
    </g>
    <g>
      <rect style="fill: #ffffff; fill-opacity: 1; stroke-opacity: 1; stroke-width: 2; stroke: #000000" x="397.05" y="262" width="125.9" height="38" rx="0" ry="0"/>
      <text font-size="12.7998" style="fill: #000000; fill-opacity: 1; stroke: none;text-anchor:middle;font-family:sans-serif;font-style:normal;font-weight:normal" x="460" y="286.683">
        <tspan x="460" y="286.683">count = count + 1</tspan>
      </text>
    </g>
    <g>
      <path style="fill: #ffffff; fill-opacity: 1; stroke-opacity: 1; stroke-width: 2; stroke: #000000" fill-rule="evenodd" d="M 447.667 459 L 474.333,459 C 478.015,459 481,467.954 481,479 C 481,490.046 478.015,499 474.333,499 L 447.667,499 C 443.985,499 441,490.046 441,479 C 441,467.954 443.985,459 447.667,459z"/>
      <text font-size="12.7998" style="fill: #000000; fill-opacity: 1; stroke: none;text-anchor:middle;font-family:sans-serif;font-style:normal;font-weight:normal" x="461" y="484.683">
        <tspan x="461" y="484.683">Fin</tspan>
      </text>
    </g>
    <g>
      <line style="fill: none; stroke-opacity: 1; stroke-width: 2; stroke: #000000" x1="461.354" y1="20.979" x2="460.915" y2="35.2655"/>
      <polygon style="fill: #000000; fill-opacity: 1; stroke-opacity: 1; stroke-width: 2; stroke: #000000" fill-rule="evenodd" points="460.684,42.7619 455.994,32.6129 460.915,35.2655 465.989,32.9204 "/>
    </g>
    <g>
      <line style="fill: none; stroke-opacity: 1; stroke-width: 2; stroke: #000000" x1="459.985" y1="216.007" x2="459.993" y2="251.265"/>
      <polygon style="fill: #000000; fill-opacity: 1; stroke-opacity: 1; stroke-width: 2; stroke: #000000" fill-rule="evenodd" points="459.995,258.765 454.993,248.766 459.993,251.265 464.993,248.764 "/>
    </g>
    <g>
      <line style="fill: none; stroke-opacity: 1; stroke-width: 2; stroke: #000000" x1="460.033" y1="301.002" x2="460.079" y2="329.292"/>
      <polygon style="fill: #000000; fill-opacity: 1; stroke-opacity: 1; stroke-width: 2; stroke: #000000" fill-rule="evenodd" points="460.091,336.792 455.075,326.801 460.079,329.292 465.075,326.784 "/>
    </g>
    <g>
      <line style="fill: none; stroke-opacity: 1; stroke-width: 2; stroke: #000000" x1="460.494" y1="418.724" x2="460.742" y2="448.305"/>
      <polygon style="fill: #000000; fill-opacity: 1; stroke-opacity: 1; stroke-width: 2; stroke: #000000" fill-rule="evenodd" points="460.805,455.805 455.721,445.847 460.742,448.305 465.721,445.763 "/>
    </g>
    <g>
      <polyline style="fill: none; stroke-opacity: 1; stroke-width: 2; stroke: #000000" points="544.715,378.944 576,378.944 576,110 459.613,110 459.613,122.264 "/>
      <polygon style="fill: #000000; fill-opacity: 1; stroke-opacity: 1; stroke-width: 2; stroke: #000000" fill-rule="evenodd" points="459.613,129.764 454.613,119.764 459.613,122.264 464.613,119.764 "/>
    </g>
    <g>
      <line style="fill: none; stroke-opacity: 1; stroke-width: 2; stroke: #000000" x1="459.997" y1="85.0031" x2="459.985" y2="164.285"/>
      <polygon style="fill: #000000; fill-opacity: 1; stroke-opacity: 1; stroke-width: 2; stroke: #000000" fill-rule="evenodd" points="459.984,171.785 454.985,161.784 459.985,164.285 464.985,161.786 "/>
    </g>
  </g>
</svg>
